<?xml version="1.0" encoding="UTF-8" standalone="no"?>
<!-- Created with Inkscape (http://www.inkscape.org/) -->

<svg
   xmlns:dc="http://purl.org/dc/elements/1.1/"
   xmlns:cc="http://creativecommons.org/ns#"
   xmlns:rdf="http://www.w3.org/1999/02/22-rdf-syntax-ns#"
   xmlns:svg="http://www.w3.org/2000/svg"
   xmlns="http://www.w3.org/2000/svg"
   xmlns:sodipodi="http://sodipodi.sourceforge.net/DTD/sodipodi-0.dtd"
   xmlns:inkscape="http://www.inkscape.org/namespaces/inkscape"
   id="svg2985"
   version="1.1"
   inkscape:version="0.48.5 r10040"
   width="1000"
   height="220.58713"
   xml:space="preserve"
   sodipodi:docname="A.svg"><metadata
     id="metadata2991"><rdf:RDF><cc:Work
         rdf:about=""><dc:format>image/svg+xml</dc:format><dc:type
           rdf:resource="http://purl.org/dc/dcmitype/StillImage" /><dc:title></dc:title></cc:Work></rdf:RDF></metadata><defs
     id="defs2989"><clipPath
       clipPathUnits="userSpaceOnUse"
       id="clipPath2999"><path
         d="m 0,309.429 612,0 L 612,792 0,792 0,309.429 z"
         id="path3001"
         inkscape:connector-curvature="0" /></clipPath><clipPath
       clipPathUnits="userSpaceOnUse"
       id="clipPath3013"><path
         d="m 0,297.266 612,0 L 612,792 0,792 0,297.266 z"
         id="path3015"
         inkscape:connector-curvature="0" /></clipPath><clipPath
       clipPathUnits="userSpaceOnUse"
       id="clipPath3021"><path
         d="m 47.9758,909.315 515.3512,0 0,-596.665 -515.3512,0 0,596.665 z"
         id="path3023"
         inkscape:connector-curvature="0" /></clipPath><clipPath
       clipPathUnits="userSpaceOnUse"
       id="clipPath3025"><path
         d="m 47.976,312.65 515.351,0 0,596.665 -515.351,0 0,-596.665 z"
         id="path3027"
         inkscape:connector-curvature="0" /></clipPath><clipPath
       clipPathUnits="userSpaceOnUse"
       id="clipPath3047"><path
         d="m -69.5002,976.186 424.3452,0 0,-602.565 -424.3452,0 0,602.565 z"
         id="path3049"
         inkscape:connector-curvature="0" /></clipPath><clipPath
       clipPathUnits="userSpaceOnUse"
       id="clipPath3051"><path
         d="m -69.5,373.621 424.346,0 0,602.565 -424.346,0 0,-602.565 z"
         id="path3053"
         inkscape:connector-curvature="0" /></clipPath><clipPath
       clipPathUnits="userSpaceOnUse"
       id="clipPath3073"><path
         d="m -99,996.81 640.885,0 0,-642.623 -640.885,0 0,642.623 z"
         id="path3075"
         inkscape:connector-curvature="0" /></clipPath><clipPath
       clipPathUnits="userSpaceOnUse"
       id="clipPath3077"><path
         d="m -99,354.187 640.885,0 0,642.623 -640.885,0 0,-642.623 z"
         id="path3079"
         inkscape:connector-curvature="0" /></clipPath><clipPath
       clipPathUnits="userSpaceOnUse"
       id="clipPath3105"><path
         d="m -73.494,909.315 633.244,0 0,-583.644 -633.244,0 0,583.644 z"
         id="path3107"
         inkscape:connector-curvature="0" /></clipPath><clipPath
       clipPathUnits="userSpaceOnUse"
       id="clipPath3109"><path
         d="m -73.494,325.671 633.244,0 0,583.644 -633.244,0 0,-583.644 z"
         id="path3111"
         inkscape:connector-curvature="0" /></clipPath><clipPath
       clipPathUnits="userSpaceOnUse"
       id="clipPath3179"><path
         d="m 418.659,19.223 159.34,0 0,46.378 -159.34,0 0,-46.378 z"
         id="path3181"
         inkscape:connector-curvature="0" /></clipPath><clipPath
       clipPathUnits="userSpaceOnUse"
       id="clipPath3465"><path
         inkscape:connector-curvature="0"
         d="m 63,560.7 116.4,0 0,87.3 -116.4,0 0,-87.3 z"
         id="path3467" /></clipPath><clipPath
       clipPathUnits="userSpaceOnUse"
       id="clipPath3493"><path
         inkscape:connector-curvature="0"
         d="m 63.604,591.69 115.192,0 0,25.32 -115.192,0 0,-25.32 z"
         id="path3495" /></clipPath></defs><sodipodi:namedview
     pagecolor="#ffffff"
     bordercolor="#666666"
     borderopacity="1"
     objecttolerance="10"
     gridtolerance="10"
     guidetolerance="10"
     inkscape:pageopacity="0"
     inkscape:pageshadow="2"
     inkscape:window-width="1046"
     inkscape:window-height="998"
     id="namedview2987"
     showgrid="false"
     fit-margin-left="0.5"
     fit-margin-bottom="0.5"
     fit-margin-top="0.5"
     fit-margin-right="0.5"
     inkscape:zoom="0.52741729"
     inkscape:cx="620.55282"
     inkscape:cy="97.33778"
     inkscape:window-x="867"
     inkscape:window-y="16"
     inkscape:window-maximized="0"
     inkscape:current-layer="g2993" /><g
     id="g2993"
     inkscape:groupmode="layer"
     inkscape:label="HGI_Brand_Fact_Sheet"
     transform="matrix(1.25,0,0,-1.25,-708.18909,376.90981)"><g
       transform="matrix(6.9379818,0,0,6.9379818,125.66788,-3979.6763)"
       id="g3461"><g
         id="g3463"
         clip-path="url(#clipPath3465)"><path
           d="m 116.13,598.69 c 0.144,0.458 0.556,1.768 0.64,2.03 l 5.265,0 c 0.814,0 1.653,0.633 1.908,1.443 l 0.371,1.172 -6.72,0 c 0.144,0.457 0.557,1.767 0.64,2.03 l 6.534,0 c 0.813,0 1.652,0.634 1.908,1.444 l 0.367,1.172 -9.277,0 c -0.796,-0.061 -1.561,-0.681 -1.799,-1.439 l -3.301,-10.466 9.174,0 c 0.812,0 1.651,0.635 1.905,1.443 l 0.372,1.171 -7.987,0 z"
           style="fill:#043b60;fill-opacity:1;fill-rule:nonzero;stroke:none"
           id="path3469"
           inkscape:connector-curvature="0" /><path
           d="m 136.326,600.474 c 0.241,0.767 0.153,1.517 -0.244,2.058 -0.38,0.519 -0.994,0.803 -1.731,0.803 l -4.186,0 c -0.532,0 -0.689,0.106 -0.735,0.169 -0.096,0.13 0.008,0.456 0.106,0.769 0.217,0.682 0.347,1.092 1.429,1.092 l 5.027,0 c 0.816,0 1.654,0.634 1.91,1.444 l 0.367,1.172 -7.484,0 c -1.499,0 -3.101,-1.217 -3.572,-2.71 l -0.533,-1.69 c -0.242,-0.764 -0.155,-1.515 0.244,-2.056 0.379,-0.518 0.994,-0.805 1.732,-0.805 l 4.185,0 c 0.532,0 0.687,-0.106 0.734,-0.169 0.096,-0.129 -0.008,-0.455 -0.107,-0.769 -0.216,-0.682 -0.345,-1.092 -1.426,-1.092 l -5.45,0 c -0.818,0 -1.657,-0.633 -1.909,-1.444 l -0.369,-1.17 7.908,0 c 1.499,0 3.101,1.216 3.569,2.712 l 0.535,1.686 z"
           style="fill:#043b60;fill-opacity:1;fill-rule:nonzero;stroke:none"
           id="path3471"
           inkscape:connector-curvature="0" /><path
           d="m 142.373,607.981 c -1.501,0 -3.103,-1.217 -3.572,-2.71 l -0.532,-1.69 c -0.242,-0.766 -0.153,-1.517 0.244,-2.057 0.379,-0.517 0.993,-0.804 1.729,-0.804 l 4.187,0 c 0.532,0 0.689,-0.106 0.735,-0.169 0.094,-0.129 -0.009,-0.455 -0.108,-0.769 -0.215,-0.68 -0.343,-1.092 -1.426,-1.092 l -5.453,0 c -0.813,0 -1.652,-0.633 -1.907,-1.442 0,0 -0.368,-1.172 -0.368,-1.172 l 7.908,0 c 1.499,0 3.1,1.216 3.57,2.712 l 0.531,1.687 c 0.242,0.766 0.154,1.516 -0.242,2.056 -0.379,0.52 -0.994,0.804 -1.73,0.804 l -4.185,0 c -0.532,0 -0.688,0.106 -0.734,0.169 -0.096,0.129 0.005,0.454 0.104,0.769 0.216,0.682 0.346,1.092 1.426,1.092 l 5.031,0 c 0.816,0 1.652,0.634 1.907,1.444 l 0.368,1.172 -7.483,0 z"
           style="fill:#043b60;fill-opacity:1;fill-rule:nonzero;stroke:none"
           id="path3473"
           inkscape:connector-curvature="0" /><path
           d="m 101.699,603.43 0.533,1.69 c 0.09,0.283 0.134,0.565 0.134,0.834 0,0.459 -0.129,0.883 -0.378,1.223 -0.38,0.518 -0.994,0.804 -1.731,0.804 l -6.297,0 c -0.813,0 -1.65,-0.634 -1.904,-1.443 l -3.301,-10.462 1.19,0 c 0.811,0 1.648,0.635 1.904,1.442 0,10e-4 0.792,2.515 1.009,3.202 l 5.269,0 c 1.498,0 3.102,1.217 3.572,2.71 m -2.179,1.616 c 0,-0.16 -0.073,-0.394 -0.145,-0.62 l 0,-0.003 c -0.215,-0.678 -0.345,-1.088 -1.426,-1.088 l -4.265,0 c 0.144,0.457 0.557,1.767 0.638,2.03 l 4.426,0 c 0.531,0 0.689,-0.106 0.735,-0.168 0.026,-0.036 0.037,-0.088 0.037,-0.151"
           style="fill:#043b60;fill-opacity:1;fill-rule:nonzero;stroke:none"
           id="path3475"
           inkscape:connector-curvature="0" /><path
           d="m 113.429,603.43 0.533,1.69 c 0.089,0.283 0.133,0.564 0.133,0.832 0,0.46 -0.129,0.885 -0.378,1.225 -0.381,0.518 -0.994,0.804 -1.73,0.804 l -6.297,0 c -0.813,0 -1.651,-0.634 -1.906,-1.442 0,-10e-4 -3.298,-10.463 -3.298,-10.463 l 1.188,0 c 0.812,0 1.648,0.635 1.905,1.442 0,10e-4 0.792,2.515 1.009,3.202 l 3.273,0 c 0.056,-0.332 0.277,-1.687 0.277,-1.687 0.454,-2.846 0.574,-2.957 3.227,-2.957 l 0.296,0 c 0,0 -0.732,4.44 -0.797,4.825 1.186,0.392 2.202,1.379 2.565,2.529 m -3.753,-0.095 -4.263,0 c 0.144,0.457 0.557,1.767 0.64,2.03 l 4.422,0 c 0.532,0 0.689,-0.106 0.735,-0.168 0.027,-0.036 0.037,-0.088 0.037,-0.151 0,-0.16 -0.072,-0.394 -0.144,-0.62 l 0,-0.003 c -0.215,-0.677 -0.345,-1.088 -1.427,-1.088"
           style="fill:#043b60;fill-opacity:1;fill-rule:nonzero;stroke:none"
           id="path3477"
           inkscape:connector-curvature="0" /><path
           d="m 155.991,606.663 -3.339,-10.587 9.656,0 c 0.731,0 1.508,0.591 1.739,1.323 l 0.28,0.882 -8.775,0 0.832,2.645 5.732,0 c 0.732,0 1.51,0.592 1.74,1.322 l 0.279,0.881 -7.053,0 0.831,2.645 7.055,0 c 0.731,0 1.511,0.594 1.742,1.324 l 0.276,0.883 -9.366,0 c -0.698,-0.056 -1.411,-0.625 -1.629,-1.318"
           style="fill:#76b18f;fill-opacity:1;fill-rule:nonzero;stroke:none"
           id="path3479"
           inkscape:connector-curvature="0" /><path
           d="m 152.157,606.629 -2.468,-7.827 c -1.451,-4.601 -2.614,-5.009 -5.446,-5.377 l -0.548,-1.735 c 2.869,0 6.19,0.144 8.292,6.811 l 2.99,9.48 -1.043,0 c -0.746,0 -1.54,-0.606 -1.777,-1.352"
           style="fill:#76b18f;fill-opacity:1;fill-rule:nonzero;stroke:none"
           id="path3481"
           inkscape:connector-curvature="0" /><path
           d="m 169.531,607.981 c -0.729,0 -1.508,-0.594 -1.738,-1.323 l -0.278,-0.884 4.186,0 -3.056,-9.698 0.882,0 c 0.73,0 1.508,0.591 1.738,1.323 l 2.641,8.375 2.867,0 c 0.729,0 1.511,0.594 1.741,1.324 l 0.276,0.883 -9.259,0 z"
           style="fill:#76b18f;fill-opacity:1;fill-rule:nonzero;stroke:none"
           id="path3483"
           inkscape:connector-curvature="0" /><path
           d="m 91.796,607.896 -3.971,0 c -0.054,-0.049 -3.841,-3.552 -3.841,-3.552 l -0.666,1.479 c -0.975,2.166 -1.185,2.166 -3.756,2.166 l -0.557,0 c 0.114,-0.255 2.623,-5.826 2.623,-5.826 0,0 -6.051,-5.599 -6.388,-5.91 l 0.92,0 c 2.587,0 3.054,0 5.271,2.051 l 1.365,1.264 c 0,0 1.518,-3.381 1.566,-3.49 l 3.338,0 c -0.115,0.255 -2.547,5.669 -2.547,5.669 0,0 6.307,5.837 6.643,6.149"
           style="fill:#043b60;fill-opacity:1;fill-rule:nonzero;stroke:none"
           id="path3485"
           inkscape:connector-curvature="0" /><path
           d="m 67.069,598.69 c 0.144,0.458 0.556,1.768 0.639,2.03 l 5.266,0 c 0.815,0 1.653,0.633 1.908,1.443 l 0.371,1.172 -6.72,0 c 0.144,0.457 0.557,1.767 0.639,2.03 l 6.535,0 c 0.813,0 1.652,0.634 1.906,1.444 l 0.369,1.172 -9.277,0 c -0.796,-0.061 -1.561,-0.681 -1.799,-1.439 l -3.302,-10.466 9.174,0 c 0.813,0 1.652,0.635 1.906,1.443 l 0.37,1.171 -7.985,0 z"
           style="fill:#043b60;fill-opacity:1;fill-rule:nonzero;stroke:none"
           id="path3487"
           inkscape:connector-curvature="0" /><g
           id="g3489"><g
             id="g3491"
             clip-path="url(#clipPath3493)"><path
               d="m 166.003,610.208 -96.789,0 c -0.555,10e-4 -1.004,-0.275 -1.306,-0.649 l 99.396,0 0.007,0 c -0.303,0.374 -0.748,0.65 -1.308,0.649"
               style="fill:#ee2722;fill-opacity:1;fill-rule:nonzero;stroke:none"
               id="path3497"
               inkscape:connector-curvature="0" /><path
               d="m 178.662,609.822 c -0.487,0.854 -1.222,1.57 -2.235,2.076 -1.017,0.506 -2.314,0.802 -3.931,0.804 -0.007,0 -0.015,10e-4 -0.023,10e-4 l -15.253,-10e-4 c -0.526,0 -1.069,0 -1.638,0.161 -1.01,0.283 -1.7,0.791 -2.457,1.453 -0.639,0.558 -1.727,1.547 -2.27,2.074 -0.636,0.621 -1.462,0.62 -1.859,0.62 l -2.637,-0.002 0.149,-0.108 c 0.319,-0.228 1.173,-0.92 3.324,-2.939 1.743,-1.635 3.36,-1.898 6.555,-1.898 l 14.61,0 c 1.135,0 2.232,-0.666 2.98,-1.619 0.008,-0.01 0.178,-0.233 0.34,-0.468 0.124,-0.179 0.271,-0.417 0.271,-0.417 l 4.208,0 c -0.031,0.064 -0.074,0.159 -0.134,0.263"
               style="fill:#ee2722;fill-opacity:1;fill-rule:nonzero;stroke:none"
               id="path3499"
               inkscape:connector-curvature="0" /></g></g><path
           d="m 172.056,610.213 c -0.213,0.239 -0.462,0.463 -0.74,0.664 -0.393,0.284 -1.074,0.574 -1.911,0.574 l -13.932,0 c -2.596,0 -4.174,0.02 -5.599,0.998 l -0.051,-0.053 c 0.169,-0.238 0.765,-0.699 1.102,-0.923 0.75,-0.495 2.155,-0.659 2.926,-0.656 l 13.364,0 c 0.758,0 1.356,-0.284 1.88,-0.893 0,0 0.225,-0.27 0.293,-0.365 0.004,0.002 3.112,0 3.146,0 -0.085,0.166 -0.213,0.339 -0.323,0.48 -0.081,0.096 -0.155,0.174 -0.155,0.174"
           style="fill:#ee2722;fill-opacity:1;fill-rule:nonzero;stroke:none"
           id="path3501"
           inkscape:connector-curvature="0" /></g></g></g></svg>