<?xml version="1.0" encoding="utf-8"?>
<!-- Generator: Adobe Illustrator 15.0.0, SVG Export Plug-In . SVG Version: 6.00 Build 0)  -->
<!DOCTYPE svg PUBLIC "-//W3C//DTD SVG 1.1//EN" "http://www.w3.org/Graphics/SVG/1.1/DTD/svg11.dtd">
<svg version="1.1" id="Layer_1" xmlns="http://www.w3.org/2000/svg" xmlns:xlink="http://www.w3.org/1999/xlink" x="0px" y="0px"
	 width="800px" height="64px" viewBox="0 0 800 64" enable-background="new 0 0 800 64" xml:space="preserve">
<g>
	<path fill="#0E2E62" d="M202.176,40.432c-0.128,4.521-1.096,8.68-3.096,11.432c-4.424,6.248-13.488,8.281-24.472,8.281
		c-11.6,0-20.4-2.033-24.744-8.177c-1.952-2.696-2.928-6.944-2.928-11.528V12.392c0-4.08-0.64-4.304-8.136-4.664V4.96h29.736v2.768
		c-7.592,0.36-8.176,0.584-8.176,4.664v28.224c0,7.903,2.8,16.224,14.24,16.224c11.584,0,14.184-8.287,14.184-16.224V12.392
		c0-4.08-0.552-4.304-8.176-4.664V4.96h29.704v2.768c-7.496,0.36-8.152,0.584-8.152,4.664"/>
	<rect x="215.52" y="25.68" fill="#0E2E62" width="8.888" height="8.968"/>
	<path fill="#0E2E62" d="M274.28,19.472c-2.328-8.808-7.872-12.28-14.496-12.28c-6.904,0-11.2,3.376-11.2,8.528
		c0,5.72,7.136,8.632,13.512,10.616l2.952,0.864c9.144,3.024,16.904,7.448,16.904,16.416c0,8.344-6.048,16.456-24.928,16.521
		c-6.576,0-15.512-1.217-20.32-4.769L235.424,42h3.456c3.312,9.336,10.136,14.84,18.152,14.84c7.32,0,12.096-3.191,12.096-9.216
		c0-5.624-4.936-8.937-11.568-11.088l-2.184-0.632c-9.216-2.937-18.92-7.408-18.92-16.44c0-8.944,7.648-15.608,23.664-15.608
		c5.936,0,12.944,1.104,17.48,3.44v12.168"/>
	<path fill="#0E2E62" d="M373.944,52.256L354.128,4.96h-10.384L332.8,30.136c-3.224,7.696-6.76,15.952-9.416,21.624
		c-1.784,3.608-2.736,4.352-8.4,4.504v2.648h22.272v-2.641l-5.496-0.287c-2.512-0.145-2.656-1.112-1.984-2.969
		c1.296-4.463,3.208-8.832,5.032-13.832h19.952l5.576,13.656c0.896,1.896,0.432,3-1.928,3.145l-5.176,0.287v2.648h28.624v-2.648
		C376.552,56.12,375.416,55.84,373.944,52.256 M336.32,35.768c1.112-2.799,7.376-18.503,8.448-21.007h0.312l8.304,21.007H336.32z"/>
	<path fill="#0E2E62" d="M414.328,51.616c0,4.128,0.552,4.368,8.032,4.655v2.648h-29.536v-2.648
		c7.432-0.287,8.104-0.527,8.104-4.655v-39.24c0-4.064-0.664-4.288-8.104-4.648V4.96h29.536v2.768
		c-7.48,0.36-8.032,0.584-8.032,4.648"/>
	<path fill="#0E2E62" d="M528.976,33.384c-2.592-7.96-5.296-15.64-7.424-21.528c-1.256-3.544-2.063-3.856-7.176-4.128V4.96h26.688
		v2.768l-4.696,0.432c-2.017,0.16-2.344,0.84-1.896,3.024c1.568,4.4,10.168,31.664,11.944,36.544h0.144l13.225-41.345h9.464
		c1.816,5.088,12.056,36.097,14.144,41.345h0.36l6.2-19.265c2.712-8.848,4.472-14.968,4.92-17.176
		c0.376-1.816,0.104-2.968-1.937-3.088l-5.783-0.472V4.96h22.271v2.768c-5.544,0.36-6.56,0.8-8,4.664
		c-1.392,3.472-4.023,10.688-6.984,19.232l-9.256,27.296h-10.527c-1.896-5.064-11.473-33.464-13.576-38.832h-0.12L548.048,58.92
		h-10.616"/>
	<path fill="#0E2E62" d="M669.424,52.256L649.72,4.96H639.32l-10.96,25.176c-3.353,7.696-6.753,15.952-9.505,21.624
		c-1.783,3.608-2.752,4.352-8.399,4.504v2.648h22.24v-2.641l-5.465-0.287c-2.464-0.145-2.527-1.112-1.888-2.969
		c1.152-4.463,3.088-8.832,4.984-13.832h20.016l5.552,13.656c0.769,1.896,0.4,3-2.128,3.145l-4.968,0.287v2.648h28.536v-2.648
		C672.08,56.12,670.832,55.84,669.424,52.256 M631.784,35.768c1.224-2.799,7.456-18.503,8.376-21.007h0.359l8.425,21.007H631.784z"
		/>
	<path fill="#0E2E62" d="M694.208,56.271c9.016-0.287,9.6-0.615,9.6-4.815v-11.24c0-1.84-0.728-3.384-1.728-5.079
		c-1.744-2.777-12.816-20.297-14.784-23.185c-2.256-3.36-3.296-3.968-8.408-4.224V4.96H707.6v2.768L702.2,8.2
		c-1.864,0.12-1.992,1.144-1.208,2.472l13.088,22.096h0.168c4.368-7.335,10.12-16.607,12.488-21.616
		c1-1.928,0.535-2.832-1.328-2.984l-5.04-0.432V4.96h22.735v2.768c-5.823,0.432-7.231,1.072-9.664,4.56
		c-3.991,5.592-9.84,14.512-14.575,22.136c-0.984,1.744-1.641,3.192-1.641,5.225v11.815c0,4.192,0.761,4.521,9.792,4.815v2.648
		h-32.808"/>
	<path fill="#0E2E62" d="M790.408,19.472c-2.336-8.808-7.896-12.28-14.521-12.28c-6.855,0-11.208,3.376-11.208,8.528
		c0,5.72,7.256,8.632,13.592,10.616l2.904,0.864C790.264,30.224,798,34.648,798,43.616c0,8.344-5.976,16.456-24.856,16.521
		c-6.479,0-15.575-1.217-20.288-4.769L751.552,42h3.336c3.416,9.336,10.336,14.84,18.248,14.84c7.424,0,12.08-3.191,12.08-9.216
		c0-5.624-4.912-8.937-11.528-11.088l-2.128-0.632c-9.247-2.937-19.008-7.408-19.008-16.44c0-8.944,7.632-15.608,23.528-15.608
		c6.016,0,13.176,1.104,17.592,3.44v12.168"/>
	<path fill="#0E2E62" d="M509.608,55.016c-2.009-0.815-3.608-1.455-9.2-6.152c-5.136-4.159-10.272-10.264-17.12-17.343
		c7.512-1.768,12.76-6.656,12.76-12.768c0-7.616-5.607-13.8-23.063-13.8h-32.097V7.72c7.496,0.36,7.977,0.584,7.977,4.664v39.224
		c0,4.129-0.488,4.369-7.977,4.656v2.648H470.4v-2.641c-7.504-0.287-7.984-0.527-7.984-4.655V33.936l6.496-0.016
		c0.656,0,1.328,0.016,1.815,0.568c1.328,1.168,5.96,6.736,9.929,11.136c5.632,6.144,9.504,9.976,13.863,11.792
		c2.536,1.16,5.112,1.504,10.824,1.504h10.168v-2.504C514.696,56.416,511.936,56.12,509.608,55.016 M468.2,30.728h-5.792v-19.08
		c0-2.44,0.712-3.336,6.408-3.336c6.832,0,12.896,2.52,12.896,11.032C481.72,26.392,477.904,30.728,468.2,30.728"/>
	<rect x="25.96" y="16.984" fill="#848989" width="67.152" height="6.056"/>
	<rect x="25.96" y="4.96" fill="#848989" width="67.152" height="6.008"/>
	<rect x="2" y="29.032" fill="#848989" width="91.104" height="6.063"/>
	<rect x="2" y="40.977" fill="#848989" width="91.104" height="6.023"/>
	<rect x="2" y="52.977" fill="#848989" width="91.104" height="5.943"/>
	<rect x="2" y="4.96" fill="#848989" width="17.896" height="18.08"/>
</g>
</svg>
