<?xml version="1.0" encoding="UTF-8" standalone="no"?>
<!-- Created with Inkscape (http://www.inkscape.org/) -->

<svg
   xmlns:dc="http://purl.org/dc/elements/1.1/"
   xmlns:cc="http://creativecommons.org/ns#"
   xmlns:rdf="http://www.w3.org/1999/02/22-rdf-syntax-ns#"
   xmlns:svg="http://www.w3.org/2000/svg"
   xmlns="http://www.w3.org/2000/svg"
   xmlns:sodipodi="http://sodipodi.sourceforge.net/DTD/sodipodi-0.dtd"
   xmlns:inkscape="http://www.inkscape.org/namespaces/inkscape"
   version="1.0"
   width="195.79648"
   height="72.677795"
   id="svg1978"
   inkscape:version="0.48.1 "
   sodipodi:docname="AJAX.svg">
  <metadata
     id="metadata33">
    <rdf:RDF>
      <cc:Work
         rdf:about="">
        <dc:format>image/svg+xml</dc:format>
        <dc:type
           rdf:resource="http://purl.org/dc/dcmitype/StillImage" />
      </cc:Work>
    </rdf:RDF>
  </metadata>
  <sodipodi:namedview
     pagecolor="#ffffff"
     bordercolor="#666666"
     borderopacity="1"
     objecttolerance="10"
     gridtolerance="10"
     guidetolerance="10"
     inkscape:pageopacity="0"
     inkscape:pageshadow="2"
     inkscape:window-width="1280"
     inkscape:window-height="1004"
     id="namedview31"
     showgrid="false"
     inkscape:zoom="0.99838806"
     inkscape:cx="320.91727"
     inkscape:cy="110.36175"
     inkscape:window-x="-8"
     inkscape:window-y="-8"
     inkscape:window-maximized="1"
     inkscape:current-layer="g6623"
     fit-margin-top="0"
     fit-margin-left="0"
     fit-margin-right="0"
     fit-margin-bottom="0" />
  <defs
     id="defs1980">
    <inkscape:perspective
       sodipodi:type="inkscape:persp3d"
       inkscape:vp_x="0 : 154.20816 : 1"
       inkscape:vp_y="0 : 1000 : 0"
       inkscape:vp_z="850.39423 : 154.20816 : 1"
       inkscape:persp3d-origin="425.19711 : 102.80544 : 1"
       id="perspective35" />
  </defs>
  <g
     transform="matrix(0.23564835,0,0,0.23564835,9.3039894,-63.52679)"
     id="layer1">
    <g
       transform="translate(-358.0611,-42.65553)"
       id="g1986">
      <g
         transform="matrix(1.868877,0,0,1.868877,-243.6955,-506.3004)"
         id="g6642">
        <g
           transform="translate(134.0164,0)"
           id="g6616">
          <path
             d="m 339.50612,551.12112 -16.54722,0 26.79739,-75.14463 18.12146,0 26.48255,75.14463 -17.07197,0 -4.82775,-15.49772 -27.70695,0 -5.24751,15.49772 z m 9.41057,-28.47662 19.17096,0 -9.34061,-29.73598 -0.17492,0 -9.65543,29.73598 z"
             style="fill:#bf2426;fill-rule:nonzero;stroke:none"
             id="path5880"
             inkscape:connector-curvature="0" />
          <path
             d="m 410.90751,551.12112 -16.54721,0 26.79736,-75.14463 18.12149,0 26.48251,75.14463 -17.07196,0 -4.82772,-15.49772 -27.74194,0 -5.21253,15.49772 z m 9.41055,-28.47662 19.13601,0 -9.30563,-29.73598 -0.2099,0 -9.62048,29.73598 z"
             style="fill:#2a376e;fill-rule:nonzero;stroke:none"
             id="path5882"
             inkscape:connector-curvature="0" />
          <path
             d="m 414.5458,457.64513 c 0.66468,2.37886 0.66468,3.63829 -0.2099,6.43694 l -7.80135,23.05416 -8.36105,-23.36901 c 0,0 0.97953,-2.65872 1.53926,-4.05808 0.38481,0 1.18946,0.90956 1.18946,0.90956 0,0 -0.9096,-2.6937 -0.59475,-3.25347 l 1.29441,-3.21845 1.32937,0.87458 c -0.27987,-0.76963 -0.69967,-2.55381 -0.69967,-2.55381 l 1.22441,-3.74323 1.39936,0.66468 c 0,0 -0.94457,-2.62378 -0.69966,-3.00859 l 3.21849,-8.39603 c 2.58875,6.33202 4.79273,13.15381 7.17162,19.66075 z"
             style="fill:#2a376e;fill-rule:nonzero;stroke:none"
             id="path5900"
             inkscape:connector-curvature="0" />
          <path
             d="m 408.35371,500.11513 c 0.17491,0.62969 0.10495,1.46929 -0.55973,2.48384 0.10495,1.29438 0.035,1.81912 -0.38482,2.34387 -0.38485,0.34983 -0.76966,0.52475 -1.29441,0.48977 0.10495,-0.38482 0.10495,-0.94455 0,-1.11947 -1.74916,-2.20397 -5.59734,-6.68185 -5.59734,-6.68185 l -1.99408,0 -1.92411,4.86269 0.76966,1.3294 c 0,0 1.81913,-0.035 2.55378,0 0.17491,0.035 0.27986,0.17492 0.4198,0.4198 l 0,0.73464 c -0.10495,-0.13993 -0.38482,-0.24488 -0.55973,-0.27986 -1.8891,0 -3.11354,0 -4.8627,0.07 l -0.6297,0.27986 c -0.2099,-0.6297 0.27987,-1.22441 0.76963,-1.22441 0.31485,0 0.73465,0.035 0.6297,-0.27987 -0.2099,-0.34983 -0.34983,-0.55973 -0.6297,-0.90956 l -2.23896,0 c -2.09899,-6.19209 -4.33795,-12.38418 -6.22707,-18.64624 0.73468,0 1.88912,-0.38482 1.88912,-0.38482 0,0 -2.23895,-0.87458 -2.69374,-2.06404 -0.45478,-1.15444 -1.99404,-5.38744 -1.99404,-5.38744 0,0 1.29438,-0.10495 1.81913,-0.38482 -0.69967,-0.48976 -2.41384,-1.11949 -2.72872,-1.92411 -0.90957,-2.30889 -1.4693,-4.61781 -1.4693,-4.61781 0,0 2.16899,-0.17492 1.88913,-0.31485 -1.22445,-0.55973 -2.79869,-2.09903 -2.79869,-2.09903 0,0 -1.5393,-4.19801 -1.46933,-4.233 0.13993,-0.035 2.09903,0.035 2.09903,0.035 -0.48977,-1.08448 -2.09903,-1.64425 -1.67923,-3.00859 0.45481,-1.74916 1.22444,-3.56832 1.53929,-4.6528 l 1.22442,0.76963 c -0.13994,-0.73465 -0.52475,-3.07855 -0.52475,-3.07855 l 1.64424,-4.72277 1.22441,0.8396 -0.38481,-3.14852 2.58879,-6.85677 6.96172,19.66075 14.62311,41.70037 z"
             style="fill:#2a376e;fill-rule:nonzero;stroke:none"
             id="path5902"
             inkscape:connector-curvature="0" />
          <path
             d="m 383.69032,498.82072 -0.62973,-1.01452 -0.76963,1.01452 -3.00859,0 6.50694,-9.83035 3.60331,9.83035 -1.85411,0 -0.66468,-1.0495 -0.73468,1.0495 -2.44883,0 z"
             style="fill:#2a376e;fill-rule:nonzero;stroke:none"
             id="path5904"
             inkscape:connector-curvature="0" />
        </g>
        <g
           transform="matrix(0.660808,0,0,0.660808,240.6465,163.4087)"
           id="g6623">
          <path
             d="m 105.04751,663.99579 -13.923451,0 22.283241,-64.31047 14.97917,0 22.28326,64.31047 -14.35144,0 -4.50802,-14.20879 -22.34033,0 -4.42243,14.20879 z m 7.36119,-23.96665 16.14896,0 -7.84623,-25.05084 -0.19972,0 -8.10301,25.05084 z"
             style="fill:#bf2426;fill-rule:nonzero;stroke:none"
             id="path5906"
             inkscape:connector-curvature="0" />
          <path
             d="m 223.62531,663.99579 -12.32571,0 0,-27.59017 c 0,-6.96175 -4.39387,-9.2728 -8.01742,-9.2728 -6.16284,0 -8.35979,4.0515 -8.35979,9.61518 l 0,27.24779 -11.49828,0 0,-27.33338 c 0,-3.9659 -0.85594,-9.52959 -8.27419,-9.52959 -5.82047,0 -7.67501,4.0515 -7.67501,9.18721 l 0,27.67576 -12.32571,0 0,-45.90753 11.81212,0 0,4.3083 0.17121,0 c 1.59776,-3.10995 5.70634,-6.10578 12.29716,-6.10578 6.3055,0 10.89912,2.48226 14.06613,7.50381 1.59776,-2.28251 4.85039,-7.64647 13.09607,-7.64647 9.1872,0 17.03342,5.10718 17.03342,15.4071 l 0,32.44057 z"
             style="fill:#bf2426;fill-rule:nonzero;stroke:none"
             id="path5908"
             inkscape:connector-curvature="0" />
          <path
             d="m 273.02511,650.24351 c -3.26404,11.29855 -12.60816,15.00766 -20.63129,15.00766 -13.2273,0 -23.80114,-6.36256 -23.80114,-25.67853 0,-5.62075 2.51934,-23.70984 23.06504,-23.70984 9.25565,0 22.04072,4.4224 22.04072,25.82119 l 0,2.22548 -32.76294,0 c 0.35378,3.5094 1.49506,11.46975 11.45832,11.46975 3.43806,0 7.8348,-1.76898 8.8049,-5.13571 l 11.82639,0 z m -11.15306,-14.35146 c -0.70473,-7.58944 -6.42534,-9.90051 -10.39124,-9.90051 -5.82047,0 -9.48393,3.70914 -10.19153,9.90051 l 20.58277,0 z"
             style="fill:#bf2426;fill-rule:nonzero;stroke:none"
             id="path5910"
             inkscape:connector-curvature="0" />
          <path
             d="m 306.20746,627.5608 c -0.75609,-0.0285 -1.5578,-0.0285 -2.28823,-0.0285 -7.00168,0 -11.37559,4.96452 -11.37559,7.73209 l 0,28.73143 -12.34282,0 0,-45.90753 11.81499,0 0,4.05151 0.17689,0 c 2.99296,-4.10858 8.67649,-5.70634 12.8735,-5.70634 0.38234,0 0.76751,0.0285 1.14984,0.0571 l -0.009,11.0703 z"
             style="fill:#bf2426;fill-rule:nonzero;stroke:none"
             id="path5912"
             inkscape:connector-curvature="0" />
          <path
             d="m 322.28224,618.08826 0,45.90753 -12.34567,0 0,-45.90753 12.34567,0 z m 0,-6.53376 -12.34567,0 0,-9.44399 12.34567,0 0,9.44399 z"
             style="fill:#bf2426;fill-rule:nonzero;stroke:none"
             id="path5914"
             inkscape:connector-curvature="0" />
          <path
             d="m 418.79074,654.83709 c 0,5.56368 2.44801,9.1587 2.44801,9.1587 l -13.02758,0 c -0.70473,-2.19695 -0.87875,-0.42797 -1.14412,-3.08142 -2.82177,2.91023 -6.79054,4.3368 -15.1646,4.3368 -7.05303,0 -16.0234,-3.96589 -16.0234,-13.66669 0,-9.1872 7.55804,-14.55117 15.40427,-15.69243 l 11.11023,-1.39806 c 1.94017,-0.25678 4.31973,-0.65622 4.31973,-3.28114 0,-5.22131 -4.93886,-5.47809 -8.11159,-5.47809 -6.1714,0 -8.67932,3.79471 -9.03313,6.53375 l -10.45116,0 c 1.40946,-14.37997 11.37272,-16.40571 20.98505,-16.40571 6.61083,0 18.68829,2.02574 18.68829,13.58107 l 0,25.39322 z m -12.07746,-13.66666 c -1.2326,0.97007 -3.26119,1.11273 -8.37693,1.91161 -4.58219,0.7989 -10.11163,2.59638 -10.11163,7.70356 0,4.3083 5.09004,5.64928 7.46961,5.64928 5.46666,0 11.01895,-3.53792 11.01895,-9.2728 l 0,-5.99165 z"
             style="fill:#bf2426;fill-rule:nonzero;stroke:none"
             id="path5916"
             inkscape:connector-curvature="0" />
          <path
             d="m 467.94801,663.99579 -12.34567,0 0,-27.44751 c 0,-3.82323 -1.7233,-9.2728 -8.02312,-9.2728 -6.39965,0 -9.11871,3.70912 -9.11871,10.84206 l 0,25.87825 -12.34282,0 0,-45.90753 11.81211,0 0,5.87752 0.17975,0 c 1.67482,-2.79608 3.89459,-7.81766 12.80219,-7.81766 9.16722,0 17.03627,6.70494 17.03627,17.00489 l 0,30.84278 z"
             style="fill:#bf2426;fill-rule:nonzero;stroke:none"
             id="path5918"
             inkscape:connector-curvature="0" />
          <path
             d="m 327.8231,640.40005 c 0.38231,14.46557 7.06443,24.6514 22.46585,24.6514 7.40399,0 20.73399,-3.33821 21.87812,-17.97496 l -11.79501,0 c 0,3.16702 -2.40807,7.58942 -10.08311,7.58942 -7.76062,0 -10.36841,-7.76061 -10.36841,-13.58108 0,-0.22828 0,-1.16981 0,-1.36953 0,-5.82047 2.60779,-13.5811 10.36841,-13.5811 7.67504,0 10.08311,4.3939 10.08311,7.56091 l 11.79501,0 c -1.14413,-14.63676 -14.47413,-17.97497 -21.87812,-17.97497 -15.40142,0 -22.08354,10.21434 -22.46585,24.67991 l 0,0 z"
             style="fill:#bf2426;fill-rule:nonzero;stroke:none"
             id="path5920"
             inkscape:connector-curvature="0" />
          <path
             d="m 485.95722,663.99579 -13.92916,0 22.57142,-63.31187 15.25306,0 22.30609,63.31187 -14.37143,0 -4.05436,-13.039 -23.36746,0 -4.40816,13.039 z m 7.93753,-23.96665 16.13469,0 -7.84623,-25.05084 -0.17974,0 -8.10872,25.05084 z"
             style="fill:#2a376e;fill-rule:nonzero;stroke:none"
             id="path5924"
             inkscape:connector-curvature="0" />
          <path
             d="m 597.45343,663.99579 -12.34566,0 0,-61.88528 12.34566,0 0,61.88528 z"
             style="fill:#2a376e;fill-rule:nonzero;stroke:none"
             id="path5926"
             inkscape:connector-curvature="0" />
          <path
             d="m 750.43478,631.38404 c -0.5307,-2.99583 -1.58923,-6.16284 -8.29139,-6.16284 -6.69922,0 -7.58085,2.53932 -7.58085,4.56507 0,6.4767 23.35318,1.88308 28.40331,13.40989 0.61347,1.39807 0.95585,4.02299 0.95585,5.90606 0,13.66669 -13.22733,16.14895 -20.54287,16.14895 -10.66797,0 -21.63844,-3.70911 -21.99224,-18.54559 l 12.11741,0 c 0,6.27697 2.46801,9.18721 10.22862,9.18721 6.34836,0 7.84625,-3.08143 7.84625,-4.8504 0,-9.18721 -29.09378,-1.94017 -29.09378,-19.48717 0,-6.87612 4.31684,-15.69242 18.95356,-15.69242 9.17017,0 20.10353,2.28251 21.07357,15.52124 l -12.07744,0 z"
             style="fill:#2a376e;fill-rule:nonzero;stroke:none"
             id="path5928"
             inkscape:connector-curvature="0" />
          <path
             d="m 547.57716,618.08826 0,45.90753 -12.34283,0 0,-45.90753 12.34283,0 z m 0,-6.53376 -12.34283,0 0,-9.44399 12.34283,0 0,9.44399 z"
             style="fill:#2a376e;fill-rule:nonzero;stroke:none"
             id="path5930"
             inkscape:connector-curvature="0" />
          <path
             d="m 617.60252,618.08826 0,45.90753 -12.34282,0 0,-45.90753 12.34282,0 z m 0,-6.53376 -12.34282,0 0,-9.44399 12.34282,0 0,9.44399 z"
             style="fill:#2a376e;fill-rule:nonzero;stroke:none"
             id="path5932"
             inkscape:connector-curvature="0" />
          <path
             d="m 581.08765,627.5608 c -0.75896,-0.0285 -1.5607,-0.0285 -2.28826,-0.0285 -7.00452,0 -11.3756,4.96452 -11.3756,7.73209 l 0,28.73143 -12.34565,0 0,-45.90753 11.81783,0 0,4.05151 0.17405,0 c 2.99583,-4.10858 8.67936,-5.70634 12.87635,-5.70634 0.38232,0 0.76179,0.0285 1.14983,0.0571 l -0.009,11.0703 z"
             style="fill:#2a376e;fill-rule:nonzero;stroke:none"
             id="path5934"
             inkscape:connector-curvature="0" />
          <path
             d="m 666.56582,663.99579 -12.34284,0 0,-27.44751 c 0,-3.82323 -1.72331,-9.2728 -8.026,-9.2728 -6.39678,0 -9.11585,3.70912 -9.11585,10.84206 l 0,25.87825 -12.34567,0 0,-45.90753 11.81783,0 0,5.87752 0.17404,0 c 1.6748,-2.79608 3.89743,-7.81766 12.80218,-7.81766 9.17008,0 17.03631,6.70494 17.03631,17.00489 l 0,30.84278 z"
             style="fill:#2a376e;fill-rule:nonzero;stroke:none"
             id="path5936"
             inkscape:connector-curvature="0" />
          <path
             d="m 716.94709,650.24351 c -3.25831,11.29855 -12.60529,15.00766 -20.62843,15.00766 -13.22733,0 -23.80118,-6.36256 -23.80118,-25.67853 0,-5.62075 2.51939,-23.70984 23.06219,-23.70984 9.25857,0 22.04647,4.4224 22.04647,25.82119 l 0,2.22548 -32.76583,0 c 0.3538,3.5094 1.49503,11.46975 11.45835,11.46975 3.43806,0 7.83482,-1.76898 8.80487,-5.13571 l 11.82356,0 z m -11.15308,-14.35146 c -0.70188,-7.58944 -6.42249,-9.90051 -10.38839,-9.90051 -5.82043,0 -9.48963,3.70914 -10.19151,9.90051 l 20.5799,0 z"
             style="fill:#2a376e;fill-rule:nonzero;stroke:none"
             id="path5938"
             inkscape:connector-curvature="0" />
        </g>
      </g>
    </g>
  </g>
</svg>
